<mxfile host="app.diagrams.net" modified="2023-11-02T13:46:01.249Z" agent="Mozilla/5.0 (Windows NT 10.0; Win64; x64) AppleWebKit/537.36 (KHTML, like Gecko) Chrome/118.0.0.0 Safari/537.36" etag="2HfmZRqQrXq8ntY_MS77" version="22.0.8" type="device">
  <diagram name="Page-1" id="8O7IdneKOdAPOWmLxWg3">
    <mxGraphModel dx="1434" dy="758" grid="1" gridSize="10" guides="1" tooltips="1" connect="1" arrows="1" fold="1" page="1" pageScale="1" pageWidth="827" pageHeight="1169" math="0" shadow="0">
      <root>
        <mxCell id="0" />
        <mxCell id="1" parent="0" />
        <mxCell id="Ne3r_T4Bo1EJxHmye7xJ-3" value="&lt;p style=&quot;margin:0px;margin-top:6px;text-align:center;&quot;&gt;&lt;b&gt;DostÄ™p do bazy danych&lt;/b&gt;&lt;/p&gt;" style="align=left;overflow=fill;html=1;dropTarget=0;whiteSpace=wrap;" vertex="1" parent="1">
          <mxGeometry x="580" y="280" width="220" height="40" as="geometry" />
        </mxCell>
        <mxCell id="Ne3r_T4Bo1EJxHmye7xJ-4" value="" style="shape=component;jettyWidth=8;jettyHeight=4;" vertex="1" parent="Ne3r_T4Bo1EJxHmye7xJ-3">
          <mxGeometry x="1" width="20" height="20" relative="1" as="geometry">
            <mxPoint x="-24" y="4" as="offset" />
          </mxGeometry>
        </mxCell>
        <mxCell id="Ne3r_T4Bo1EJxHmye7xJ-5" value="&lt;p style=&quot;margin:0px;margin-top:6px;text-align:center;&quot;&gt;&lt;b&gt;Model&lt;/b&gt;&lt;/p&gt;" style="align=left;overflow=fill;html=1;dropTarget=0;whiteSpace=wrap;" vertex="1" parent="1">
          <mxGeometry x="300" y="370" width="180" height="60" as="geometry" />
        </mxCell>
        <mxCell id="Ne3r_T4Bo1EJxHmye7xJ-6" value="" style="shape=component;jettyWidth=8;jettyHeight=4;" vertex="1" parent="Ne3r_T4Bo1EJxHmye7xJ-5">
          <mxGeometry x="1" width="20" height="20" relative="1" as="geometry">
            <mxPoint x="-24" y="4" as="offset" />
          </mxGeometry>
        </mxCell>
        <mxCell id="Ne3r_T4Bo1EJxHmye7xJ-7" value="&lt;p style=&quot;margin:0px;margin-top:6px;text-align:center;&quot;&gt;&lt;b&gt;Baza danych&lt;/b&gt;&lt;/p&gt;" style="align=left;overflow=fill;html=1;dropTarget=0;whiteSpace=wrap;" vertex="1" parent="1">
          <mxGeometry x="300" y="240" width="180" height="70" as="geometry" />
        </mxCell>
        <mxCell id="Ne3r_T4Bo1EJxHmye7xJ-8" value="" style="shape=component;jettyWidth=8;jettyHeight=4;" vertex="1" parent="Ne3r_T4Bo1EJxHmye7xJ-7">
          <mxGeometry x="1" width="20" height="20" relative="1" as="geometry">
            <mxPoint x="-24" y="4" as="offset" />
          </mxGeometry>
        </mxCell>
        <mxCell id="Ne3r_T4Bo1EJxHmye7xJ-11" value="&lt;p style=&quot;margin:0px;margin-top:6px;text-align:center;&quot;&gt;&lt;b&gt;Widok&lt;/b&gt;&lt;/p&gt;" style="align=left;overflow=fill;html=1;dropTarget=0;whiteSpace=wrap;" vertex="1" parent="1">
          <mxGeometry x="300" y="460" width="180" height="90" as="geometry" />
        </mxCell>
        <mxCell id="Ne3r_T4Bo1EJxHmye7xJ-12" value="" style="shape=component;jettyWidth=8;jettyHeight=4;" vertex="1" parent="Ne3r_T4Bo1EJxHmye7xJ-11">
          <mxGeometry x="1" width="20" height="20" relative="1" as="geometry">
            <mxPoint x="-24" y="4" as="offset" />
          </mxGeometry>
        </mxCell>
        <mxCell id="Ne3r_T4Bo1EJxHmye7xJ-13" value="OracleSQL" style="shape=note;size=20;whiteSpace=wrap;html=1;" vertex="1" parent="1">
          <mxGeometry x="120" y="260" width="116" height="60" as="geometry" />
        </mxCell>
        <mxCell id="Ne3r_T4Bo1EJxHmye7xJ-14" value="Hibernate" style="shape=note;size=20;whiteSpace=wrap;html=1;" vertex="1" parent="1">
          <mxGeometry x="622" y="160" width="116" height="60" as="geometry" />
        </mxCell>
        <mxCell id="Ne3r_T4Bo1EJxHmye7xJ-15" value="&lt;p style=&quot;margin:0px;margin-top:6px;text-align:center;&quot;&gt;&lt;b&gt;Kontroler&lt;/b&gt;&lt;/p&gt;" style="align=left;overflow=fill;html=1;dropTarget=0;whiteSpace=wrap;" vertex="1" parent="1">
          <mxGeometry x="300" y="580" width="180" height="90" as="geometry" />
        </mxCell>
        <mxCell id="Ne3r_T4Bo1EJxHmye7xJ-16" value="" style="shape=component;jettyWidth=8;jettyHeight=4;" vertex="1" parent="Ne3r_T4Bo1EJxHmye7xJ-15">
          <mxGeometry x="1" width="20" height="20" relative="1" as="geometry">
            <mxPoint x="-24" y="4" as="offset" />
          </mxGeometry>
        </mxCell>
        <mxCell id="Ne3r_T4Bo1EJxHmye7xJ-17" value="&lt;p style=&quot;margin:0px;margin-top:6px;text-align:center;&quot;&gt;&lt;b&gt;Komunikacja&lt;/b&gt;&lt;/p&gt;" style="align=left;overflow=fill;html=1;dropTarget=0;whiteSpace=wrap;" vertex="1" parent="1">
          <mxGeometry x="570" y="400" width="180" height="90" as="geometry" />
        </mxCell>
        <mxCell id="Ne3r_T4Bo1EJxHmye7xJ-18" value="" style="shape=component;jettyWidth=8;jettyHeight=4;" vertex="1" parent="Ne3r_T4Bo1EJxHmye7xJ-17">
          <mxGeometry x="1" width="20" height="20" relative="1" as="geometry">
            <mxPoint x="-24" y="4" as="offset" />
          </mxGeometry>
        </mxCell>
        <mxCell id="Ne3r_T4Bo1EJxHmye7xJ-19" value="&lt;p style=&quot;margin:0px;margin-top:6px;text-align:center;&quot;&gt;&lt;b&gt;Budowanie&lt;/b&gt;&lt;/p&gt;" style="align=left;overflow=fill;html=1;dropTarget=0;whiteSpace=wrap;" vertex="1" parent="1">
          <mxGeometry x="70" y="400" width="190" height="60" as="geometry" />
        </mxCell>
        <mxCell id="Ne3r_T4Bo1EJxHmye7xJ-20" value="" style="shape=component;jettyWidth=8;jettyHeight=4;" vertex="1" parent="Ne3r_T4Bo1EJxHmye7xJ-19">
          <mxGeometry x="1" width="20" height="20" relative="1" as="geometry">
            <mxPoint x="-24" y="4" as="offset" />
          </mxGeometry>
        </mxCell>
        <mxCell id="Ne3r_T4Bo1EJxHmye7xJ-51" value="" style="shape=providedRequiredInterface;html=1;verticalLabelPosition=bottom;sketch=0;" vertex="1" parent="1">
          <mxGeometry x="510" y="260" width="20" height="20" as="geometry" />
        </mxCell>
        <mxCell id="Ne3r_T4Bo1EJxHmye7xJ-54" value="" style="shape=providedRequiredInterface;html=1;verticalLabelPosition=bottom;sketch=0;rotation=-205;" vertex="1" parent="1">
          <mxGeometry x="510" y="340" width="20" height="20" as="geometry" />
        </mxCell>
      </root>
    </mxGraphModel>
  </diagram>
</mxfile>
